<?xml version="1.0" encoding="UTF-8"?>
<svg xmlns="http://www.w3.org/2000/svg" version="1.1" viewBox="0 0 256 256">
  <rect width="256" height="256" rx="64" ry="64" fill="#000000" />
  <path d="M127.53,159.13c-2.67,0-5.35-.3-8.05-1.01l-.19-.05c-7.36-2.11-14.64-4.94-21.68-7.68-3.89-1.51-7.92-3.08-11.82-4.46l-.27-.1c-1.92-.76-3.84-1.47-5.72-2.16-6.54-2.41-12.71-4.69-17.25-8.36-7.61-5.86-11.69-14.56-11.19-23.88.5-9.43,5.77-18.09,14.09-23.14l.87-.49c9.48-4.65,20.66-8.69,31.48-12.61,5.68-2.05,11.04-4,16.12-6,14.73-5.86,27.56-.7,38.87,3.86,2.97,1.19,5.77,2.32,8.59,3.27l.6.23c2.8,1.19,6.07,2.35,9.54,3.58,8.83,3.13,17.95,6.37,23.74,11.55,6.1,5.24,9.62,12.9,9.67,21.04.04,8.1-3.38,15.76-9.4,21.04-5.13,4.7-10.48,6.7-17.24,9.23-1.37.51-2.85,1.06-4.44,1.68l-24.16,9.1c-7.07,2.87-14.54,5.38-22.16,5.38ZM123.72,142.25c5.44,1.39,11.89-.5,19.88-3.75l.2-.08,24.19-9.11c1.59-.62,3.12-1.19,4.55-1.72,6.34-2.37,9.26-3.53,11.94-6l.18-.16c2.46-2.14,3.86-5.29,3.85-8.64-.02-3.39-1.47-6.56-3.98-8.7l-.19-.16c-3.34-3.03-11.29-5.85-18.3-8.33-3.44-1.22-6.99-2.48-10.16-3.81-3.18-1.08-6.24-2.31-9.21-3.5-11.19-4.5-18.46-7.09-26.69-3.82-5.32,2.1-11.04,4.17-16.58,6.17-10.26,3.71-20.86,7.55-29.47,11.73-3.73,2.33-5.94,5.92-6.15,9.94-.21,3.92,1.52,7.49,4.86,10.04l.21.17c2.42,1.98,7.62,3.9,12.65,5.75,1.95.72,3.94,1.46,5.94,2.24,4.09,1.45,8.18,3.05,12.14,4.59,6.96,2.71,13.54,5.27,20.14,7.17Z" fill="#FFFFFF" />
  <path d="M128.2,195.23c-3.47,0-6.96-.63-10.2-1.87-1.3-.52-5.65-2.14-10.25-3.85-8.39-3.11-18.83-6.99-24.02-9.11l-.37-.16c-9.85-4.6-16.13-14.66-15.99-25.62,0-1.07,0-5.42,0-10.1,0-4.53,0-9.39,0-12l16.42.03c0,2.6,0,7.44,0,11.96,0,4.73,0,9.11,0,10.25-.05,4.46,2.49,8.64,6.36,10.53,5.03,2.04,15.57,5.96,23.31,8.83,5.87,2.18,9.25,3.44,10.58,3.97,2.2.85,4.93.98,7.21.3,5.19-1.83,14.75-5.45,22.45-8.37,5.4-2.04,9.67-3.66,11.23-4.2,4.13-1.48,7.24-5.58,7.5-9.95.08-1.92.07-8.87.05-14.46,0-3.37-.01-6.6,0-8.92l16.42.08c-.01,2.28,0,5.47,0,8.8.02,6.64.03,12.92-.08,15.35-.66,11.03-8.06,20.86-18.41,24.58-1.43.5-5.82,2.16-10.9,4.09-7.87,2.98-17.65,6.68-22.98,8.56l-.29.09c-2.57.8-5.3,1.19-8.06,1.19Z" fill="#FFFFFF" />
</svg>